<?xml version="1.0" encoding="iso-8859-1"?>
<!-- Uploaded to: SVG Repo, www.svgrepo.com, Generator: SVG Repo Mixer Tools -->
<svg fill="#000000" height="800px" width="800px" version="1.1" id="Layer_1" xmlns="http://www.w3.org/2000/svg" xmlns:xlink="http://www.w3.org/1999/xlink" 
	 viewBox="0 0 512 512" xml:space="preserve">
<g>
	<g>
		<path d="M437.081,74.981C388.728,26.628,324.441,0,256.061,0S123.393,26.628,75.04,74.981C26.689,123.333,0.059,187.62,0.059,256
			s26.63,132.667,74.981,181.019C123.393,485.372,187.68,512,256.061,512s132.667-26.628,181.02-74.981
			C536.894,337.206,536.894,174.795,437.081,74.981z M417.403,417.342c-43.095,43.096-100.394,66.83-161.342,66.83
			s-118.246-23.734-161.342-66.83S27.888,316.946,27.888,256s23.734-118.246,66.83-161.342s100.394-66.83,161.342-66.83
			c60.949,0,118.247,23.734,161.342,66.83C506.366,183.622,506.366,328.378,417.403,417.342z"/>
	</g>
</g>
<g>
	<g>
		<path d="M189.644,255.999l124.92-124.92c5.433-5.433,5.433-14.243,0-19.677c-5.436-5.433-14.243-5.433-19.678,0L160.127,246.16
			c-5.433,5.435-5.433,14.245,0,19.678l134.759,134.759c2.717,2.717,6.276,4.075,9.838,4.075s7.122-1.358,9.84-4.075
			c5.433-5.435,5.433-14.245,0-19.678L189.644,255.999z"/>
	</g>
</g>
<g>
	<g>
		<path d="M274.214,421.269L139.455,286.51c-5.435-5.433-14.245-5.433-19.678,0c-5.433,5.435-5.433,14.245,0,19.678l134.759,134.759
			c2.717,2.717,6.276,4.075,9.838,4.075s7.122-1.358,9.84-4.075C279.647,435.512,279.647,426.702,274.214,421.269z"/>
	</g>
</g>
</svg>